# xmcd
# 
# Track frame offsets:
#     150
#     19833
#     38421
#     58284
#     78343
#     99835
#     117841
#     154102
#     174867
#     199502
#     219751
#     245462
#     264203
#     286058
#     304514
#     329044
# 
# Disc length: 4681
# 
# Revision: 1
# Processed by: cddbd v1.5.2PL0 Copyright (c) Steve Scherf et al.
# Submitted via: fre:ac v1.0.17
# 
DISCID=c4124710
DTITLE=Tshepo Tshola and Sankomota - The Best Of Tsepo Tshola and Sankomota
DYEAR=1998
DGENRE=Jazz
TTITLE0=Bakubeletsa (Sankomota)
TTITLE1=Madambadamba (Tsepo Tshola)
TTITLE2=Exploration - A Phase New (Sankomota)
TTITLE3=Akubutle (Tsepo Tshola)
TTITLE4=Disposable Hero (Sankomota)
TTITLE5=Lehlapahlapa (Tsepo Tshola)
TTITLE6=Papa (Sankomota)
TTITLE7=Ho Lokile (Tsepo Tshola)
TTITLE8=Stop The War (Sankomota)
TTITLE9=Look To Thee (Tsepo Tshola)
TTITLE10=Sekunjalo (Sankomota)
TTITLE11=Makhositive (Tsepo Tshola)
TTITLE12=Malala Pipe (Sankomota)
TTITLE13=Lesedi (Tsepo Tshola)
TTITLE14=Obe (Sankomota)
TTITLE15=Bonang Sefapanong (Tsepo Tshola)
EXTD=
EXTT0=
EXTT1=
EXTT2=
EXTT3=
EXTT4=
EXTT5=
EXTT6=
EXTT7=
EXTT8=
EXTT9=
EXTT10=
EXTT11=
EXTT12=
EXTT13=
EXTT14=
EXTT15=
PLAYORDER=
